{
	"asset":{
		"generator":"Khronos glTF Blender I/O v4.0.44",
		"version":"2.0"
	},
	"scene":0,
	"scenes":[
		{
			"name":"Scene",
			"nodes":[
				0,
				1,
				2,
				3
			]
		}
	],
	"nodes":[
		{
			"mesh":0,
			"name":"counter"
		},
		{
			"mesh":1,
			"name":"Cube"
		},
		{
			"mesh":2,
			"name":"BezierCurve",
			"rotation":[
				-0.5,
				-0.5,
				-0.4999999403953552,
				0.5000000596046448
			],
			"translation":[
				-0.800000011920929,
				0,
				-0.8999999761581421
			]
		},
		{
			"mesh":3,
			"name":"Cube.001",
			"rotation":[
				-0.8191519975662231,
				0,
				0,
				0.5735765099525452
			],
			"translation":[
				0,
				1.4527453184127808,
				-0.7179946899414062
			]
		}
	],
	"materials":[
		{
			"doubleSided":true,
			"name":"Material.002",
			"pbrMetallicRoughness":{
				"baseColorTexture":{
					"index":0
				},
				"metallicFactor":0,
				"roughnessFactor":0.5
			}
		}
	],
	"meshes":[
		{
			"name":"Cube",
			"primitives":[
				{
					"attributes":{
						"POSITION":0,
						"NORMAL":1,
						"TEXCOORD_0":2
					},
					"indices":3,
					"material":0
				}
			]
		},
		{
			"name":"Cube.001",
			"primitives":[
				{
					"attributes":{
						"POSITION":4,
						"NORMAL":5,
						"TEXCOORD_0":6
					},
					"indices":7
				}
			]
		},
		{
			"name":"BezierCurve",
			"primitives":[
				{
					"attributes":{
						"POSITION":8,
						"NORMAL":9,
						"TEXCOORD_0":10
					},
					"indices":11
				}
			]
		},
		{
			"name":"Cube.002",
			"primitives":[
				{
					"attributes":{
						"POSITION":12,
						"NORMAL":13,
						"TEXCOORD_0":14
					},
					"indices":7
				}
			]
		}
	],
	"textures":[
		{
			"sampler":0,
			"source":0
		}
	],
	"images":[
		{
			"mimeType":"image/png",
			"name":"counterclip",
			"uri":"counterclip.png"
		}
	],
	"accessors":[
		{
			"bufferView":0,
			"componentType":5126,
			"count":124,
			"max":[
				0,
				1.000000238418579,
				1.2000000476837158
			],
			"min":[
				-5.200000286102295,
				-1,
				-4.199999809265137
			],
			"type":"VEC3"
		},
		{
			"bufferView":1,
			"componentType":5126,
			"count":124,
			"type":"VEC3"
		},
		{
			"bufferView":2,
			"componentType":5126,
			"count":124,
			"type":"VEC2"
		},
		{
			"bufferView":3,
			"componentType":5123,
			"count":312,
			"type":"SCALAR"
		},
		{
			"bufferView":4,
			"componentType":5126,
			"count":26,
			"max":[
				0,
				1,
				0.5
			],
			"min":[
				-0.5,
				0.9000000357627869,
				-0.5
			],
			"type":"VEC3"
		},
		{
			"bufferView":5,
			"componentType":5126,
			"count":26,
			"type":"VEC3"
		},
		{
			"bufferView":6,
			"componentType":5126,
			"count":26,
			"type":"VEC2"
		},
		{
			"bufferView":7,
			"componentType":5123,
			"count":48,
			"type":"SCALAR"
		},
		{
			"bufferView":8,
			"componentType":5126,
			"count":403,
			"max":[
				1.4071698188781738,
				0.8010868430137634,
				1.8912694454193115
			],
			"min":[
				-0.19163310527801514,
				0.29046496748924255,
				0.00018408149480819702
			],
			"type":"VEC3"
		},
		{
			"bufferView":9,
			"componentType":5126,
			"count":403,
			"type":"VEC3"
		},
		{
			"bufferView":10,
			"componentType":5126,
			"count":403,
			"type":"VEC2"
		},
		{
			"bufferView":11,
			"componentType":5123,
			"count":2160,
			"type":"SCALAR"
		},
		{
			"bufferView":12,
			"componentType":5126,
			"count":26,
			"max":[
				0,
				0.0499999076128006,
				0.5
			],
			"min":[
				-0.5,
				-0.05000005662441254,
				-0.5
			],
			"type":"VEC3"
		},
		{
			"bufferView":13,
			"componentType":5126,
			"count":26,
			"type":"VEC3"
		},
		{
			"bufferView":14,
			"componentType":5126,
			"count":26,
			"type":"VEC2"
		}
	],
	"bufferViews":[
		{
			"buffer":0,
			"byteLength":1488,
			"byteOffset":0,
			"target":34962
		},
		{
			"buffer":0,
			"byteLength":1488,
			"byteOffset":1488,
			"target":34962
		},
		{
			"buffer":0,
			"byteLength":992,
			"byteOffset":2976,
			"target":34962
		},
		{
			"buffer":0,
			"byteLength":624,
			"byteOffset":3968,
			"target":34963
		},
		{
			"buffer":0,
			"byteLength":312,
			"byteOffset":4592,
			"target":34962
		},
		{
			"buffer":0,
			"byteLength":312,
			"byteOffset":4904,
			"target":34962
		},
		{
			"buffer":0,
			"byteLength":208,
			"byteOffset":5216,
			"target":34962
		},
		{
			"buffer":0,
			"byteLength":96,
			"byteOffset":5424,
			"target":34963
		},
		{
			"buffer":0,
			"byteLength":4836,
			"byteOffset":5520,
			"target":34962
		},
		{
			"buffer":0,
			"byteLength":4836,
			"byteOffset":10356,
			"target":34962
		},
		{
			"buffer":0,
			"byteLength":3224,
			"byteOffset":15192,
			"target":34962
		},
		{
			"buffer":0,
			"byteLength":4320,
			"byteOffset":18416,
			"target":34963
		},
		{
			"buffer":0,
			"byteLength":312,
			"byteOffset":22736,
			"target":34962
		},
		{
			"buffer":0,
			"byteLength":312,
			"byteOffset":23048,
			"target":34962
		},
		{
			"buffer":0,
			"byteLength":208,
			"byteOffset":23360,
			"target":34962
		}
	],
	"samplers":[
		{
			"magFilter":9729,
			"minFilter":9987
		}
	],
	"buffers":[
		{
			"byteLength":23568,
			"uri":"counter.bin"
		}
	]
}
